<mxfile host="Electron" modified="2023-11-15T19:37:30.593Z" agent="Mozilla/5.0 (Macintosh; Intel Mac OS X 10_15_7) AppleWebKit/537.36 (KHTML, like Gecko) draw.io/22.0.3 Chrome/114.0.5735.289 Electron/25.8.4 Safari/537.36" etag="T4wKdGQOIXW1nUa6ohFE" version="22.0.3" type="device">
  <diagram name="Page-1" id="fjr_VaLNC7dUQeSKQ8DB">
    <mxGraphModel dx="400" dy="605" grid="1" gridSize="10" guides="1" tooltips="1" connect="1" arrows="1" fold="1" page="1" pageScale="1" pageWidth="827" pageHeight="1169" math="0" shadow="0">
      <root>
        <mxCell id="0" />
        <mxCell id="1" parent="0" />
        <mxCell id="rTm3bmU50eBhd5H4Sbsp-1" value="" style="ellipse;html=1;shape=startState;fillColor=#000000;strokeColor=#ff0000;" vertex="1" parent="1">
          <mxGeometry x="210" y="30" width="30" height="30" as="geometry" />
        </mxCell>
        <mxCell id="rTm3bmU50eBhd5H4Sbsp-2" value="" style="edgeStyle=orthogonalEdgeStyle;html=1;verticalAlign=bottom;endArrow=open;endSize=8;strokeColor=#ff0000;rounded=0;" edge="1" source="rTm3bmU50eBhd5H4Sbsp-1" parent="1">
          <mxGeometry relative="1" as="geometry">
            <mxPoint x="225" y="120" as="targetPoint" />
          </mxGeometry>
        </mxCell>
        <mxCell id="rTm3bmU50eBhd5H4Sbsp-3" value="Inscrire a" style="rounded=1;whiteSpace=wrap;html=1;arcSize=40;fontColor=#000000;fillColor=#ffffc0;strokeColor=#ff0000;" vertex="1" parent="1">
          <mxGeometry x="165" y="120" width="120" height="40" as="geometry" />
        </mxCell>
        <mxCell id="rTm3bmU50eBhd5H4Sbsp-4" value="" style="edgeStyle=orthogonalEdgeStyle;html=1;verticalAlign=bottom;endArrow=open;endSize=8;strokeColor=#ff0000;rounded=0;" edge="1" source="rTm3bmU50eBhd5H4Sbsp-3" parent="1">
          <mxGeometry relative="1" as="geometry">
            <mxPoint x="225" y="220" as="targetPoint" />
          </mxGeometry>
        </mxCell>
        <mxCell id="rTm3bmU50eBhd5H4Sbsp-5" value="Inscrire b" style="rounded=1;whiteSpace=wrap;html=1;arcSize=40;fontColor=#000000;fillColor=#ffffc0;strokeColor=#ff0000;" vertex="1" parent="1">
          <mxGeometry x="165" y="220" width="120" height="40" as="geometry" />
        </mxCell>
        <mxCell id="rTm3bmU50eBhd5H4Sbsp-6" value="" style="edgeStyle=orthogonalEdgeStyle;html=1;verticalAlign=bottom;endArrow=open;endSize=8;strokeColor=#ff0000;rounded=0;" edge="1" source="rTm3bmU50eBhd5H4Sbsp-5" parent="1">
          <mxGeometry relative="1" as="geometry">
            <mxPoint x="225" y="320" as="targetPoint" />
          </mxGeometry>
        </mxCell>
        <mxCell id="rTm3bmU50eBhd5H4Sbsp-7" value="Activity" style="rounded=1;whiteSpace=wrap;html=1;arcSize=40;fontColor=#000000;fillColor=#ffffc0;strokeColor=#ff0000;" vertex="1" parent="1">
          <mxGeometry x="165" y="320" width="120" height="40" as="geometry" />
        </mxCell>
        <mxCell id="rTm3bmU50eBhd5H4Sbsp-8" value="" style="edgeStyle=orthogonalEdgeStyle;html=1;verticalAlign=bottom;endArrow=open;endSize=8;strokeColor=#ff0000;rounded=0;" edge="1" source="rTm3bmU50eBhd5H4Sbsp-7" parent="1">
          <mxGeometry relative="1" as="geometry">
            <mxPoint x="225" y="420" as="targetPoint" />
          </mxGeometry>
        </mxCell>
        <mxCell id="rTm3bmU50eBhd5H4Sbsp-15" value="" style="edgeStyle=orthogonalEdgeStyle;rounded=0;orthogonalLoop=1;jettySize=auto;html=1;" edge="1" parent="1" source="rTm3bmU50eBhd5H4Sbsp-11">
          <mxGeometry relative="1" as="geometry">
            <mxPoint x="225" y="590" as="targetPoint" />
          </mxGeometry>
        </mxCell>
        <mxCell id="rTm3bmU50eBhd5H4Sbsp-17" style="edgeStyle=orthogonalEdgeStyle;rounded=0;orthogonalLoop=1;jettySize=auto;html=1;exitX=1;exitY=0.5;exitDx=0;exitDy=0;" edge="1" parent="1" source="rTm3bmU50eBhd5H4Sbsp-11">
          <mxGeometry relative="1" as="geometry">
            <mxPoint x="420" y="455" as="targetPoint" />
          </mxGeometry>
        </mxCell>
        <mxCell id="rTm3bmU50eBhd5H4Sbsp-11" value="a &amp;gt; b" style="rhombus;whiteSpace=wrap;html=1;fontColor=#000000;fillColor=#ffffc0;strokeColor=#ff0000;" vertex="1" parent="1">
          <mxGeometry x="160" y="420" width="130" height="70" as="geometry" />
        </mxCell>
        <mxCell id="rTm3bmU50eBhd5H4Sbsp-18" value="Afficher a" style="rounded=1;whiteSpace=wrap;html=1;arcSize=40;fontColor=#000000;fillColor=#ffffc0;strokeColor=#ff0000;" vertex="1" parent="1">
          <mxGeometry x="165" y="590" width="120" height="40" as="geometry" />
        </mxCell>
        <mxCell id="rTm3bmU50eBhd5H4Sbsp-19" value="" style="edgeStyle=orthogonalEdgeStyle;html=1;verticalAlign=bottom;endArrow=open;endSize=8;strokeColor=#ff0000;rounded=0;" edge="1" source="rTm3bmU50eBhd5H4Sbsp-18" parent="1">
          <mxGeometry relative="1" as="geometry">
            <mxPoint x="225" y="690" as="targetPoint" />
          </mxGeometry>
        </mxCell>
        <mxCell id="rTm3bmU50eBhd5H4Sbsp-20" value="Afficher b" style="rounded=1;whiteSpace=wrap;html=1;arcSize=40;fontColor=#000000;fillColor=#ffffc0;strokeColor=#ff0000;" vertex="1" parent="1">
          <mxGeometry x="420" y="430" width="120" height="40" as="geometry" />
        </mxCell>
        <mxCell id="rTm3bmU50eBhd5H4Sbsp-21" value="" style="edgeStyle=orthogonalEdgeStyle;html=1;verticalAlign=bottom;endArrow=open;endSize=8;strokeColor=#ff0000;rounded=0;" edge="1" source="rTm3bmU50eBhd5H4Sbsp-20" parent="1">
          <mxGeometry relative="1" as="geometry">
            <mxPoint x="480" y="530" as="targetPoint" />
          </mxGeometry>
        </mxCell>
        <mxCell id="rTm3bmU50eBhd5H4Sbsp-22" value="Afficher b" style="rounded=1;whiteSpace=wrap;html=1;arcSize=40;fontColor=#000000;fillColor=#ffffc0;strokeColor=#ff0000;" vertex="1" parent="1">
          <mxGeometry x="165" y="690" width="120" height="40" as="geometry" />
        </mxCell>
        <mxCell id="rTm3bmU50eBhd5H4Sbsp-23" value="" style="edgeStyle=orthogonalEdgeStyle;html=1;verticalAlign=bottom;endArrow=open;endSize=8;strokeColor=#ff0000;rounded=0;" edge="1" source="rTm3bmU50eBhd5H4Sbsp-22" parent="1">
          <mxGeometry relative="1" as="geometry">
            <mxPoint x="225" y="790" as="targetPoint" />
          </mxGeometry>
        </mxCell>
        <mxCell id="rTm3bmU50eBhd5H4Sbsp-24" value="" style="ellipse;html=1;shape=endState;fillColor=#000000;strokeColor=#ff0000;" vertex="1" parent="1">
          <mxGeometry x="210" y="790" width="30" height="30" as="geometry" />
        </mxCell>
        <mxCell id="rTm3bmU50eBhd5H4Sbsp-25" value="Afficher a" style="rounded=1;whiteSpace=wrap;html=1;arcSize=40;fontColor=#000000;fillColor=#ffffc0;strokeColor=#ff0000;" vertex="1" parent="1">
          <mxGeometry x="420" y="530" width="120" height="40" as="geometry" />
        </mxCell>
        <mxCell id="rTm3bmU50eBhd5H4Sbsp-26" value="" style="edgeStyle=orthogonalEdgeStyle;html=1;verticalAlign=bottom;endArrow=open;endSize=8;strokeColor=#ff0000;rounded=0;" edge="1" source="rTm3bmU50eBhd5H4Sbsp-25" parent="1">
          <mxGeometry relative="1" as="geometry">
            <mxPoint x="480" y="630" as="targetPoint" />
          </mxGeometry>
        </mxCell>
        <mxCell id="rTm3bmU50eBhd5H4Sbsp-27" value="" style="ellipse;html=1;shape=endState;fillColor=#000000;strokeColor=#ff0000;" vertex="1" parent="1">
          <mxGeometry x="465" y="630" width="30" height="30" as="geometry" />
        </mxCell>
      </root>
    </mxGraphModel>
  </diagram>
</mxfile>
